<svg width="213" height="24" viewBox="0 0 213 24" xmlns="http://www.w3.org/2000/svg" xmlns:xlink="http://www.w3.org/1999/xlink"><defs><path d="M24 2.0101557v15.7745661c0 .9655712-.1309577 1.6699961-.7296214 2.0623849-.5986637.4178339-1.3550111.4700631-2.6325167.4419397-.0253897-.5718431-.3380846-1.6164277-.6240534-2.1909492h1.5367483c.2084632 0 .3126949-.0790134.3126949-.3656046V4.151554h-2.474833V24h-2.1634744V2.0101557H24zM5.1861915 5.6662017l2.0846326.8102226c-.5211582.9923553-1.146548 2.0101557-1.8507796 2.977066v14.5183863H3.2311804V12.2216394c-.6761693.7834384-1.3804009 1.4892026-2.0325167 2.0891691C.9915367 13.8126221.366147 12.561799 0 11.9604933c1.9028953-1.5668769 3.908686-3.9426371 5.1861915-6.2942916zM9.017372 0l2.1100223.470063c-.2084632.7579935-.4690423 1.5400927-.7563474 2.272641h5.9412026v2.1668435H13.447216v3.656046h3.0481069v2.1936275H13.447216v2.7681491h2.8917595v2.0637241H13.447216v3.9426372l3.2832962-.4700631.0775056 2.0369399c-3.5171492.5745215-7.244098 1.149043-10.006236 1.5400927l-.5211582-2.1936276 1.3550111-.1580269v-7.8062608h1.9028954v7.5477931l1.7719376-.2357012V10.759221H7.0877506V8.5655934h4.2227171v-3.656046H9.3808463c-.4155902.7834385-.8592427 1.4624184-1.328285 2.0637242C7.6877506 6.633112 6.776392 5.954132 6.2806235 5.6929859 7.5060134 4.2827967 8.4694878 2.114614 9.017372 0zM4.5608018 0l2.1888641.8088834C5.3946548 3.002511 3.3621381 5.3796105 1.4605791 6.9210424 1.1986637 6.424195.6 5.5108531.2084633 5.066235 1.8240535 3.7605044 3.6494433 1.6981195 4.5608018 0z" id="a"/><path d="M86.4034672 0c4.052676 0 7.0869939 1.4828392 9.1029537 4.4485176L92.7925291 6.366357c-1.404945-2.1494131-3.5350647-3.2241197-6.3890619-3.2241197-2.3428722 0-4.2771039.790677-5.8013979 2.3694721-1.515213 1.5800745-2.2728196 3.5733993-2.2728196 5.978695 0 2.3963398.7576066 4.3858263 2.2728196 5.9646215 1.524294 1.6107804 3.4585257 2.4180897 5.8013979 2.4180897 1.5139158 0 2.8371327-.3236913 3.9709479-.9685153 1.055979-.5910886 1.9718526-1.4457362 2.7450264-2.5626634l2.7138918 1.8692218C93.7187809 21.4032931 90.5754922 23 86.4034672 23c-3.2795022 0-6.036204-1.0747066-8.2701054-3.2241197-2.2767114-2.2031485-3.4157157-4.9641208-3.4157157-8.2854759 0-3.308561 1.1390043-6.059298 3.4157157-8.2509317C80.3672632 1.0798242 83.123965 0 86.4034672 0zM47.2310587.257162l5.1320058 12.0571841c.2828052.6115592.5928531 1.4610892.9314409 2.546031.2944807.9237359.4410723 1.4073539.4410723 1.4508539 0-.06525.1310244-.5373533.391776-1.4188685.3385878-1.0849419.6538248-1.9447072.9483054-2.5780164L60.1259369.2571619h3.4481475L53.8666021 22.93475h-.4410722L43.4559988.257162h3.7750599zM.3762087.0307058L11.2434516 12.571508 22.0302637.0307059h.3593441v22.6788674h-3.3832839V11.0566835c0-.5053679.0220536-1.1872948.0648636-2.04706l.0661608-1.1604273-.7031211.9992212c-.5124222.7203093-.9534945 1.2794126-1.3232169 1.6760305l-5.7365343 6.8013573H10.9827l-5.720967-6.8013573c-.3593442-.3966179-.783552-.9467653-1.2739206-1.6453246l-.7355529-1.0299271.0648636 1.1604272c.0441072.8597653.0661608 1.5416922.0661608 2.0470601v11.6528898H0V.0307059h.3762087zm35.3934568 0l9.9682338 22.6788674H42.061432l-1.6838583-4.0941202h-9.6750505l-1.6669938 4.0941202H25.621111L35.361025.0307059h.4086405zm34.6086076.226456v22.4524114H66.865262V.2571619h3.5130111zM35.4920494 6.3023864l-.3606414 1.1911331c-.272427.8827947-.5176113 1.5864716-.735553 2.1123102l-2.4829775 6.1091951h7.1907756l-2.4687075-6.1091951c-.2283198-.5258386-.4735041-1.2103243-.7355529-2.0470602-.2503734-.7087945-.3865869-1.1297213-.4073433-1.2563831z" id="b"/><path d="M9.7284458 0l9.3462944 23h-1.4222336l-2.4649424-6.0888451h-11.36605L1.390716 23H0L9.3147768 0h.413669zm14.8618819.2604507V23H23.200925V.2604507h1.3894027zm12.6083705 0c2.4701953 0 4.4059038.5662535 5.8071257 1.6987606 1.4550645 1.1636056 2.1825968 2.828676 2.1825968 4.9952112 0 3.3184789-1.6599292 5.4241127-4.9784744 6.3169014L46 23h-1.6546763l-5.5917551-9.4682254-.7616764.0660846-5.5746831.0155493V23h-1.3894028V.2604507zM9.5130752 2.4814084l-.2311293.7670986c-.1654677.5221972-.3099235.9407324-.4307411 1.2569014L4.3349892 15.7190423h10.3732442L10.1920178 4.5546479c-.1326367-.3381972-.2823455-.7735775-.4478132-1.3061409-.022325-.0984788-.0485897-.195662-.0827338-.2941408l-.1483956-.4729577zm27.5529862-1.012h-4.6488523v10.9363381h4.6488523c4.4663127 0 6.7001257-1.8166761 6.7001257-5.451324 0-3.656676-2.233813-5.485014-6.7001257-5.485014z" id="c"/><path d="M0 24h15.967959v-3.2369577H8.6369753c-.3652675 0-.8010253.0229859-1.3072733.0689577l-.6459468.0676056c0 .012169.1935277-.1419718.5818648-.4597183.4293496-.3637183.7856456-.6976901 1.0650433-1.0046197l3.7782761-4.1901972C14.7029798 12.3488451 16 9.6405634 16 7.1202254c0-2.1011831-.6459468-3.8102536-1.9378404-5.1272113C12.7382249.6638873 10.9836591 0 8.798462 0 6.6683755 0 4.880487.6530704 3.4386415 1.9592113 2.0826658 3.1963943 1.1996155 4.860845.7907722 6.9498592l3.4706825.8342535c.6997757-2.9300282 2.2121115-4.3943662 4.5370073-4.3943662 2.4223006 0 3.6334508 1.2547605 3.6334508 3.7642817 0 1.8510422-1.0599166 3.9400563-3.1810317 6.2683943L0 23.6930704V24z" id="d"/></defs><g fill="#FFF" fill-rule="evenodd"><use xlink:href="#a"/><use xlink:href="#b" transform="translate(36 .5)"/><use xlink:href="#c" transform="translate(140.833333 .5)"/><use xlink:href="#d" transform="translate(197)"/></g></svg>