<svg xmlns="http://www.w3.org/2000/svg" xmlns:xlink="http://www.w3.org/1999/xlink" width="496" height="36" viewBox="0 0 496 36"><defs><path id="a" d="M48.9666645.0007353l20.9042368 26.7457276 1.5027484 2.1323054-.0708492-.8565986c-.0466113-.6507208-.0708492-1.1672534-.0708492-1.5532742V.3720505h1.830892V33h-.585438L51.5470662 6.2524342c-.2479721-.3253604-.5761157-.7793944-.9844307-1.3639402l-.4940798-.7646888.0708492.8565985.0708491 1.5734944v26.0766248h-1.8308919V.0007353h.5873024zM.4698419 0l14.7739184 19.1521468L30.0176786 0h.4698419v32.6297877h-1.8532653v-25.6134l.0913581-2.801408c0 .0312492-.1883097.3400659-.5630645.9264499-.4530619.6948374-.8613769 1.2738686-1.2212161 1.7370936L15.4339344 21.7678973h-.5183177L3.5704257 6.8785233c-.3449236-.4319758-.7439163-1.0054924-1.1988427-1.7131972-.326279-.5146944-.5166085-.8315276-.5709884-.9228416l-.016314-.0275049.0950871 2.8014082v25.6133999H0V0h.469842zM83 .3709476V32.62942h-1.9725903V.3709476H83zm-42.5561189 0V32.62942h-1.9744547V.3709476h1.9744547z"/><path id="b" d="M123.970192 0c5.814709 0 10.168296 2.1275519 13.06076 6.3826556l-3.893845 2.7516827c-2.015791-3.0839406-5.072049-4.6259109-9.166915-4.6259109-3.361512 0-6.136714 1.1344496-8.323745 3.3996774-2.174001 2.2670635-3.261002 5.1270512-3.261002 8.5781276 0 3.4382266 1.087001 6.2927074 3.261002 8.5579351 2.187031 2.3111198 4.962233 3.4694332 8.323745 3.4694332 2.17214 0 4.070669-.4644268 5.697447-1.3896089 1.5151-.8480837 2.82918-2.0743172 3.938516-3.6768649L137.5 26.1290538C134.466077 30.7090727 129.956141 33 123.970192 33c-4.705373 0-8.66064-1.5419703-11.865803-4.6259109-3.266586-3.1610391-4.90081-7.1224342-4.90081-11.8878567 0-4.7470657 1.634224-8.6937754 4.90081-11.8382934C115.309552 1.549313 119.264819 0 123.970192 0zM67.7663016.3689715l7.3633127 17.2994381c.405764.8774546.8506153 2.0963454 1.3364152 3.6530011.4225157 1.3253602.6328429 2.0192468.6328429 2.0816599 0-.0936196.1879915-.7709852.5621133-2.0357679.4858-1.5566558.9380965-2.790232 1.3606122-3.6988931L86.2676485.3689715h4.9473421L77.2868639 32.9063804h-.6328428L62.3499113.3689714h5.4163903zM.5397777.0440563L16.1319088 18.037381 31.6086392.0440563h.5155807v32.5392446H27.269943V15.8639373c0-.7250932.0316422-1.7035101.0930651-2.9370863l.0949265-1.6649608-1.008826 1.4336652c-.7352145 1.0334873-1.3680573 1.835679-1.8985286 2.4047394l-8.2306796 9.7584692h-.5621134l-8.208344-9.7584692c-.5155808-.5690604-1.1242268-1.3584024-1.8277991-2.3606831l-1.0553585-1.4777215.0930651 1.6649608c.0632843 1.2335762.0949264 2.2119931.0949264 2.9370863v16.7193636H0V.0440563h.5397777zm50.7819163 0l14.3022484 32.5392446h-5.2749313l-2.4159706-5.8741726H44.0514464l-2.3917737 5.8741726h-4.8989482L50.7353837.0440563h.5863103zm49.655828.3249152v32.2143294h-5.040407V.3689715h5.040407zM50.9233753 9.0425544l-.5174421 1.7090171c-.3908736 1.2666184-.7426597 2.2762418-1.0553586 3.0307059l-3.562533 8.7653668h10.3171998l-3.5420586-8.7653668c-.3275893-.7544641-.6793755-1.7365523-1.0553586-2.9370863-.3592313-1.0169662-.5546681-1.6209045-.5844489-1.8026367z"/><path id="c" d="M36 3.0152335v23.6618493c0 1.4483566-.1964365 2.5049941-1.0944321 3.0935773-.8979955.6267508-2.0325167.7050946-3.948775.6629095-.0380847-.8577647-.507127-2.4246415-.9360802-3.2864238h2.3051225c.3126949 0 .4690423-.1185202.4690423-.5484069V6.2273311h-3.7122494V36h-3.2452116V3.0152335H36zM7.7792873 8.4993025l3.1269488 1.215334c-.7817372 1.488533-1.7198218 3.0152335-2.7761693 4.465599v21.7775794H4.8467706V18.3324591c-1.0142539 1.1751577-2.0706013 2.2338039-3.048775 3.1337537C1.487305 20.7189331.5492204 18.8426985 0 17.9407399c2.854343-2.3503153 5.863029-5.9139557 7.7792873-9.4414374zM13.526058 0l3.1650334.7050946c-.3126949 1.1369901-.7035635 2.310139-1.1345211 3.4089615h8.911804v3.250265h-4.2975501v5.4840691h4.5721603v3.2904413h-4.5721603v4.1522237h4.3376392v3.0955862h-4.3376392v5.9139557l4.9249443-.7050946.1162583 3.0554098c-5.2757238.8617823-10.866147 1.7235646-15.0093541 2.310139l-.7817372-3.2904414 2.0325167-.2370403V18.7241783h2.854343V30.045868l2.6579065-.3535517V16.1388315h-6.3340758v-3.2904413h6.3340758v-5.484069h-2.8944321c-.6233853 1.1751576-1.2888642 2.1936276-1.9924276 3.0955862-.5472161-.5102394-1.9142539-1.5287094-2.6579065-1.9204286C11.25902 6.4241951 12.7042316 3.1719212 13.526058 0zM6.8412027 0l3.2832962 1.2133251c-2.0325167 3.2904414-5.0812918 6.8560907-7.9336303 9.1682384C1.7979956 9.6362926.9 8.2662798.3126949 7.5993527 2.7360802 5.6407567 5.4741649 2.5471793 6.8412027 0z"/></defs><g fill="#FFF" fill-rule="evenodd"><path d="M345.1571081 6.5707093h-10.5143337l2.7628906-.9220666C336.8684363 4.1118651 335.8333363 1.8066987 334.9123727 0l-3.4162236 1.0008757c.8835739 1.6904553 1.8045375 4.033056 2.3417662 5.5698336h-8.0977883v3.150394h19.4169811v-3.150394zm-28.740753 3.4951839c.7674697 1.6904553 1.6884332 3.9187828 2.1095576 5.4181261l2.2650192-.9989055c-.3837348-1.3830998-1.3440557-3.573993-2.1489149-5.3018826l-2.2256618.882662zm-.4604817 6.724387h5.7953795V7.7607268h-5.7953795v9.0295534zm8.9026475-11.872592h-5.4116447c.4998392-1.229422 1.0370679-2.726795 1.4975497-4.1098949l-3.6071072-.614711c-.2302409 1.3830998-.6139757 3.227233-1.037068 4.724606h-3.4536131v11.8725919h-2.6093967v2.8804729h2.6093967c0 4.6891418-.3069879 10.5269264-2.8396376 14.5619527.806827.3447898 2.148915 1.1919877 2.7628906 1.7672942 2.6861436-4.3798161 3.1466254-11.1042032 3.1859828-16.3292469h5.7934116v12.1031085c0 .4610333-.1534939.6147111-.6139757.6147111-.3837348.0374343-1.8025696.0374343-3.2607619 0 .4604818.7683888.9209636 2.1889229.9583531 3.0361208 2.3024088 0 3.7232115-.0788091 4.7583116-.6166812.9603209-.4984676 1.2673088-1.4205342 1.2673088-2.9967163V4.9176883zm-3.7232116 21.5917251c-.4978713-1.5367776-1.6884331-3.8399737-2.6467862-5.686077l-2.1882723.9220665c.960321 1.8066988 2.1115253 4.2655429 2.5326497 5.8023205l2.3024088-1.03831zm20.6449325 5.8023205c-.1908835 0-.3837348-.0374343-.4978713-.1930823-.1161044-.1536778-.1534939-.6895797-.1534939-1.5742119v-17.403021h-12.3188712v8.1055166c0 3.9956217-.4211243 9.0669877-4.0282315 12.6409807.8048592.3822242 2.2256619 1.3436953 2.8002801 1.9584063 3.8373481-3.9187828 4.4906812-10.0264886 4.4906812-14.5619527v-5.0319614h5.7560221v14.2151926c0 2.6893608.1908834 3.4203152.8048591 4.033056.5372287.5004379 1.4208027.7683888 2.1882723.7683888h1.7258227c.7300801 0 1.4581923-.1536777 1.9580315-.5359019.4604817-.3467601.8048591-.8846322.9977104-1.6904553.1908835-.8452277.3443774-3.0735552.3837349-4.8408494-.8068271-.2699212-1.7277906-.7683888-2.3417663-1.2688266 0 1.9209719-.0373895 3.418345-.1141365 4.1098949-.076747.5772767-.1928513.9220665-.3069878 1.0757443-.1161044.155648-.3837348.1930823-.6139757.1930823h-.7300801zm20.3005551-15.4840193l-4.0675889 1.0777146v-6.5707093h4.1443359V7.8769702h-4.1443359V.3841944h-3.6464646v7.4927758h-4.6815646v3.4577496h4.6815646v7.5676445c-1.918674.5004378-3.7212437.9220665-5.1794359 1.2688266l.8048591 3.6488616c1.3814453-.3822241 2.8396376-.8058231 4.3745768-1.1900175v8.9527146c0 .5359019-.1908835.6915499-.6907227.6915499-.4604817.0374343-1.9954209.0374343-3.5303602 0 .4604818.9595009.9209636 2.4588441 1.037068 3.3415061 2.6093966.0374343 4.2210828-.0768389 5.3329298-.6541156 1.1138149-.5753065 1.4975497-1.5367776 1.4975497-3.3789404V21.5542907c1.4955818-.4216287 2.9931314-.8452277 4.5280707-1.3062609l-.4604818-3.4203153zm5.4096768 13.2950964h11.6655381v-8.2217601h-11.6655381v8.2217601zm0-11.5652365h11.6655381V10.566331h-11.6655381v7.9912434zm6.4467447-11.372154c.6533331-1.8835377 1.3814453-4.1492996 2.0347784-6.2633538l-4.1836933-.4610333c-.2695983 1.9978108-.8816061 4.612303-1.4955818 6.724387h-6.3699977v28.3161121h3.5677497v-1.9997811h11.6655381v1.7298599h3.6838541V7.1854203h-8.9026475zm30.431154-6.2633538V30.928634c0 .7683888-.2695983.9989054-1.0744575 1.0363397-.806827.0394046-3.6071072.0394046-6.2165038-.0768388.5746182 1.0383099 1.1885939 2.7287653 1.4188348 3.7276707 3.6464646.0374343 6.1023673-.0768389 7.6373066-.6541156 1.4955818-.614711 2.1095574-1.6510508 2.1095574-4.033056V.9220666h-3.8747375zm9.1702776 9.7979422c3.109236 5.5323993 6.139757 12.678415 6.946584 17.2119089l3.874738-1.5367776c-.958353-4.6497373-4.104979-11.6401051-7.367709-16.9813923l-3.453613 1.306261zm-19.109993-.9989055c-.8816061 5.0713661-2.9163845 11.6795097-6.1397569 15.6751314.960321.3447898 2.5326497 1.229422 3.4162237 1.8815674 3.3375089-4.2635727 5.4864238-11.2184764 6.7537326-16.8277145l-4.0301994-.7289843zm61.74667 10.0658932c-1.918674-1.5367776-5.409677-3.5720228-8.595659-5.2250438 2.725501-2.1889229 5.756022-5.071366 8.211924-7.6838879l-3.223372-1.7278897c-1.76518 2.188923-4.411966 4.8782837-6.907226 7.0691769-.153494-2.9986865-.230241-6.2633538-.230241-9.7605079h-22.984731V6.186515h19.377624c.383734 17.5192644 2.302408 28.5072242 10.553691 28.5466287 2.877027-.0394045 3.951484-1.9603765 4.374576-8.1449212-.844216-.3861646-1.881284-1.3456655-2.725501-2.1534588-.153494 4.188704-.537228 6.5313047-1.534939 6.5707093-3.760601.0374343-5.639918-5.1856393-6.484134-13.793564 3.146625 1.7298599 6.523492 3.8439142 8.326061 5.4575307l1.841927-2.8824431zm19.993568-.8077933c-.76747-1.0363398-4.183694-5.2624782-5.488392-6.7598512v-1.1545534h4.874416V7.6838879h-4.874416V.3841944h-3.56775v7.2996935h-6.02562v3.3809107h5.679275c-1.265341 4.9945271-3.797991 10.7594133-6.33064 14.1383538.574618.8452276 1.458192 2.1908931 1.879316 3.2272329 1.76518-2.3426007 3.453613-5.8377846 4.797669-9.5654554v16.78831h3.56775V16.7508757c1.304698 1.9603765 2.76289 4.3049474 3.53036 5.686077l1.958032-3.4577495zm15.310034 12.9089317c-.26763 0-.421124-.0768389-.574618-.2305167-.116104-.1517075-.153494-.7683888-.153494-1.9584063V2.5750876h-13.239835v12.2548161c0 5.8023205-.497871 13.3719352-5.602528 18.5181699.844217.4630035 2.302409 1.6904553 2.878995 2.3820052 5.449034-5.5323993 6.330641-14.4831436 6.330641-20.9001751V5.9559983h6.063009V29.622373c0 3.2646673.269599 4.0724606.883574 4.724606.651366.5772767 1.611687.8452277 2.339799.8452277h1.956063c.846185 0 1.611687-.1911121 2.188273-.6147111.537228-.4216287.920963-1.0757443 1.074457-2.1889229.230241-1.03831.383735-3.7651051.383735-5.8791594-.920964-.3447898-1.956064-.9220665-2.686144-1.497373 0 2.4214098-.037389 4.3404115-.114136 5.2250438-.039358.8452276-.116105 1.1919877-.306988 1.4205341-.153494.1536778-.383735.2305167-.653333.2305167h-.76747z"/><use transform="translate(209.5 1.5)" xlink:href="#a"/><use transform="translate(54 1.5)" xlink:href="#b"/><use xlink:href="#c"/></g></svg>